{
	"asset":{
		"version":"2.0",
		"generator":"Maxon Cinema 4D 2024.1.0 (#200000219)"
	},
	"scenes":[{
		"nodes":[0]
	}],
	"nodes":[{
		"name":"World",
		"children":[1,
		2,
		3]
	},
	{
		"name":"Main_CAMERA",
		"camera":0,
		"translation":[4.444608688354492,
		1.136263370513916,
		7.755605220794678],
		"rotation":[-5.551115123125783e-17,
		0.0,
		0.0,
		-1.0],
		"scale":[1.0,
		1.0,
		1.0]
	},
	{
		"name":"DNA",
		"translation":[0.0,
		0.0,
		-3.0],
		"rotation":[0.0,
		0.0,
		0.0,
		-1.0],
		"scale":[1.0,
		1.0,
		1.0],
		"children":[4]
	},
	{
		"name":"Covid",
		"translation":[0.0,
		1.100000023841858,
		0.0],
		"rotation":[0.0,
		0.0,
		0.0,
		-1.0],
		"scale":[1.0,
		1.0,
		1.0],
		"children":[5,
		6,
		7,
		8]
	},
	{
		"name":"DNA_Spiral_mesh",
		"mesh":0,
		"translation":[0.05299999937415123,
		1.3960000276565552,
		-1.0820000171661378],
		"rotation":[0.4169502556324005,
		0.1459028422832489,
		0.049502260982990268,
		0.8957758545875549],
		"scale":[1.0,
		1.0,
		1.0]
	},
	{
		"name":"Covid_Sphere_mesh",
		"mesh":1
	},
	{
		"name":"Covid_Tulo_mesh",
		"mesh":2
	},
	{
		"name":"Nozhki_remesh_remesh",
		"mesh":3,
		"translation":[0.0033513603266328575,
		-0.013710102066397667,
		0.0037691970355808737],
		"rotation":[-7.819610969193668e-17,
		-0.7098747491836548,
		7.881192911437016e-17,
		-0.7043279409408569],
		"scale":[1.0,
		1.0,
		1.0]
	},
	{
		"name":"Covid_Pyatki_mesh_remesh",
		"mesh":4
	}],
	"meshes":[{
		"name":"DNA_Spiral_mesh",
		"primitives":[{
			"attributes":{
				"POSITION":3,
				"NORMAL":4,
				"TEXCOORD_0":5
			},
			"indices":2
		}]
	},
	{
		"name":"Covid_Sphere_mesh",
		"primitives":[{
			"attributes":{
				"POSITION":7,
				"NORMAL":8,
				"TEXCOORD_0":9
			},
			"indices":6
		}]
	},
	{
		"name":"Covid_Tulo_mesh",
		"primitives":[{
			"attributes":{
				"POSITION":11,
				"NORMAL":12,
				"TEXCOORD_0":13
			},
			"indices":10
		}]
	},
	{
		"name":"Nozhki_remesh_remesh",
		"primitives":[{
			"attributes":{
				"POSITION":15,
				"NORMAL":16,
				"TEXCOORD_0":17
			},
			"indices":14
		}]
	},
	{
		"name":"Covid_Pyatki_mesh_remesh",
		"primitives":[{
			"attributes":{
				"POSITION":19,
				"NORMAL":20,
				"TEXCOORD_0":21
			},
			"indices":18
		}]
	}],
	"cameras":[{
		"type":"perspective",
		"perspective":{
			"znear":0.009999999776482582,
			"zfar":100.0,
			"aspectRatio":1.7777777910232545,
			"yfov":0.3995964825153351
		}
	}],
	"accessors":[{
		"bufferView":0,
		"count":8,
		"type":"SCALAR",
		"componentType":5126,
		"byteOffset":0,
		"min":[0.0],
		"max":[4.599999904632568]
	},
	{
		"bufferView":0,
		"count":8,
		"type":"VEC3",
		"componentType":5126,
		"byteOffset":32,
		"min":[0.8546088337898254,
		0.0,
		-1.8243945837020875],
		"max":[4.444608688354492,
		0.0,
		7.755605220794678]
	},
	{
		"bufferView":1,
		"count":69000,
		"type":"SCALAR",
		"componentType":5123,
		"byteOffset":0,
		"min":[0],
		"max":[11479]
	},
	{
		"bufferView":2,
		"count":11480,
		"type":"VEC3",
		"componentType":5126,
		"byteOffset":0,
		"min":[-0.6953550577163696,
		-0.9036868810653687,
		-3.242295742034912],
		"max":[0.9641045331954956,
		0.9177228808403015,
		3.2493104934692385]
	},
	{
		"bufferView":2,
		"count":11480,
		"type":"VEC3",
		"componentType":5126,
		"byteOffset":12,
		"min":[-0.9999579787254334,
		-0.9999398589134216,
		-0.9999890327453613],
		"max":[0.9990310668945313,
		0.9999707937240601,
		0.9995508193969727]
	},
	{
		"bufferView":2,
		"count":11480,
		"type":"VEC2",
		"componentType":5126,
		"byteOffset":24,
		"min":[0.0017964615253731609,
		0.030367616564035417],
		"max":[0.9984211921691895,
		0.7521313428878784]
	},
	{
		"bufferView":3,
		"count":37500,
		"type":"SCALAR",
		"componentType":5123,
		"byteOffset":0,
		"min":[0],
		"max":[6525]
	},
	{
		"bufferView":4,
		"count":6526,
		"type":"VEC3",
		"componentType":5126,
		"byteOffset":0,
		"min":[-0.7997556328773499,
		-0.7997556328773499,
		-0.7997556328773499],
		"max":[0.7997556328773499,
		0.7997556328773499,
		0.7997556328773499]
	},
	{
		"bufferView":4,
		"count":6526,
		"type":"VEC3",
		"componentType":5126,
		"byteOffset":12,
		"min":[-0.999692976474762,
		-0.999692976474762,
		-0.999692976474762],
		"max":[0.999692976474762,
		0.999692976474762,
		0.999692976474762]
	},
	{
		"bufferView":4,
		"count":6526,
		"type":"VEC2",
		"componentType":5126,
		"byteOffset":24,
		"min":[0.0,
		0.0],
		"max":[1.0,
		0.8659999370574951]
	},
	{
		"bufferView":5,
		"count":8898,
		"type":"SCALAR",
		"componentType":5123,
		"byteOffset":0,
		"min":[0],
		"max":[1489]
	},
	{
		"bufferView":6,
		"count":1490,
		"type":"VEC3",
		"componentType":5126,
		"byteOffset":0,
		"min":[-0.8390061855316162,
		-0.841266393661499,
		-0.8378803730010986],
		"max":[0.851309061050415,
		0.8685947060585022,
		0.8325034976005554]
	},
	{
		"bufferView":6,
		"count":1490,
		"type":"VEC3",
		"componentType":5126,
		"byteOffset":12,
		"min":[-0.9985495805740356,
		-0.9994964003562927,
		-0.9990238547325134],
		"max":[0.9986421465873718,
		0.9999544024467468,
		0.9991687536239624]
	},
	{
		"bufferView":6,
		"count":1490,
		"type":"VEC2",
		"componentType":5126,
		"byteOffset":24,
		"min":[0.28491029143333437,
		0.5087522268295288],
		"max":[0.745396077632904,
		0.9563928842544556]
	},
	{
		"bufferView":7,
		"count":156786,
		"type":"SCALAR",
		"componentType":5123,
		"byteOffset":0,
		"min":[0],
		"max":[26439]
	},
	{
		"bufferView":8,
		"count":26440,
		"type":"VEC3",
		"componentType":5126,
		"byteOffset":0,
		"min":[-1.0442169904708863,
		-1.0562278032302857,
		-1.0411911010742188],
		"max":[1.0395690202713013,
		1.0287561416625977,
		1.040075421333313]
	},
	{
		"bufferView":8,
		"count":26440,
		"type":"VEC3",
		"componentType":5126,
		"byteOffset":12,
		"min":[-0.9999231696128845,
		-0.9999455809593201,
		-0.9998533129692078],
		"max":[0.9999711513519287,
		0.9999359250068665,
		0.9999738931655884]
	},
	{
		"bufferView":8,
		"count":26440,
		"type":"VEC2",
		"componentType":5126,
		"byteOffset":24,
		"min":[0.0008856594795361161,
		0.033399417996406558],
		"max":[0.9993093013763428,
		0.8797321319580078]
	},
	{
		"bufferView":9,
		"count":12699,
		"type":"SCALAR",
		"componentType":5123,
		"byteOffset":0,
		"min":[0],
		"max":[2244]
	},
	{
		"bufferView":10,
		"count":2245,
		"type":"VEC3",
		"componentType":5126,
		"byteOffset":0,
		"min":[-0.8001962304115295,
		-0.7727914452552795,
		-0.7230787873268127],
		"max":[0.7651323080062866,
		0.8277366161346436,
		0.8272775411605835]
	},
	{
		"bufferView":10,
		"count":2245,
		"type":"VEC3",
		"componentType":5126,
		"byteOffset":12,
		"min":[-0.9998167753219605,
		-0.9985304474830627,
		-0.9977003931999207],
		"max":[0.9989131689071655,
		0.9993339776992798,
		0.9997180104255676]
	},
	{
		"bufferView":10,
		"count":2245,
		"type":"VEC2",
		"componentType":5126,
		"byteOffset":24,
		"min":[0.12166795134544373,
		0.20092234015464784],
		"max":[0.342833012342453,
		0.6039601564407349]
	}],
	"bufferViews":[{
		"buffer":0,
		"byteOffset":0,
		"byteLength":128
	},
	{
		"buffer":1,
		"byteOffset":0,
		"byteLength":138000,
		"target":34963
	},
	{
		"buffer":1,
		"byteOffset":138000,
		"byteLength":367360,
		"target":34962,
		"byteStride":32
	},
	{
		"buffer":2,
		"byteOffset":0,
		"byteLength":75000,
		"target":34963
	},
	{
		"buffer":2,
		"byteOffset":75000,
		"byteLength":208832,
		"target":34962,
		"byteStride":32
	},
	{
		"buffer":3,
		"byteOffset":0,
		"byteLength":17796,
		"target":34963
	},
	{
		"buffer":3,
		"byteOffset":17796,
		"byteLength":47680,
		"target":34962,
		"byteStride":32
	},
	{
		"buffer":4,
		"byteOffset":0,
		"byteLength":313572,
		"target":34963
	},
	{
		"buffer":4,
		"byteOffset":313572,
		"byteLength":846080,
		"target":34962,
		"byteStride":32
	},
	{
		"buffer":5,
		"byteOffset":0,
		"byteLength":25398,
		"target":34963
	},
	{
		"buffer":5,
		"byteOffset":25400,
		"byteLength":71840,
		"target":34962,
		"byteStride":32
	}],
	"buffers":[{
		"uri":"data:application/octet-stream;base64,",
		"byteLength":128
	},
	{
		"uri":"data:application/octet-stream;base64,",
		"byteLength":505360
	},
	{
		"uri":"data:application/octet-stream;base64,",
		"byteLength":283832
	},
	{
		"uri":"data:application/octet-stream;base64,",
		"byteLength":65476
	},
	{
		"uri":"data:application/octet-stream;base64,",
		"byteLength":1159652
	},
	{
		"uri":"data:application/octet-stream;base64,",
		"byteLength":97240
	}],
	"animations":[{
		"samplers":[{
			"input":0,
			"interpolation":"LINEAR",
			"output":1
		}],
		"channels":[{
			"sampler":0,
			"target":{
				"node":1,
				"path":"translation"
			}
		}]
	}]
}